<svg id="icon-ping-black" viewBox="0 0 32 32" xmlns="http://www.w3.org/2000/svg" width="32" height="32"><title>icon uniE914</title><g class="nc-icon-wrapper" fill="#444444"><path d="M16 17.125q-2.031 0-3.469-1.438t-1.437-3.468T12.53 8.75 16 7.312t3.469 1.438 1.437 3.469-1.437 3.469T16 17.125zm0-7.781q-1.188 0-2.031.844t-.844 2.03.844 2.032 2.031.844 2.031-.844.844-2.031-.844-2.031T16 9.344zm0 21.906q-.188 0-.36-.063t-.296-.156q-.406-.375-2.125-2.062-1.75-1.688-3.656-4.25t-3.407-5.813q-1.531-3.25-1.531-6.75 0-2.344.906-4.437.875-2.063 2.422-3.625t3.64-2.469Q13.657.75 16 .75t4.438.875q2.062.906 3.609 2.469t2.422 3.625q.906 2.093.906 4.437 0 3.594-1.625 6.938-1.594 3.343-3.563 5.953t-3.656 4.203q-1.718 1.625-1.875 1.781-.125.094-.297.157T16 31.25zm0-28.5q-1.938 0-3.625.75-1.719.75-2.984 2.031T7.375 8.5q-.719 1.719-.719 3.688 0 2.624 1.032 5.156 1.062 2.531 2.515 4.734T13.22 26t2.594 2.688l.187.187.188-.188q1.03-.968 2.593-2.718 1.563-1.719 3.032-3.907t2.5-4.718q1.03-2.563 1.03-5.157 0-1.968-.718-3.687-.75-1.688-2.016-2.969T19.625 3.5Q17.937 2.75 16 2.75z" fill="#444444" class="nc-icon-wrapper"/></g></svg>