<svg id="icon-settings-black" viewBox="0 0 32 32" xmlns="http://www.w3.org/2000/svg" width="32" height="32"><title>icon uniE938</title><g class="nc-icon-wrapper" fill="#444444"><path d="M16 22.156q-1.281 0-2.375-.468-1.125-.5-1.969-1.329t-1.312-1.953q-.5-1.125-.5-2.375 0-1.281.5-2.406.469-1.125 1.312-1.953t1.969-1.328q1.094-.469 2.375-.469t2.406.469q1.094.5 1.938 1.328t1.312 1.953q.5 1.125.5 2.406 0 1.25-.5 2.375-.468 1.125-1.312 1.953t-1.938 1.328q-1.125.47-2.406.47zm0-10.468q-1.781 0-3.063 1.265t-1.28 3.078q0 1.782 1.28 3.047T16 20.344t3.063-1.266 1.28-3.047q0-1.812-1.28-3.078T16 11.688zm-1.906 19.624q-.344 0-.61-.234t-.296-.547l-.407-2.968q0-.125-.078-.22t-.172-.124q-.531-.157-1.015-.36t-.954-.453q-.062 0-.109-.015t-.078-.016q-.063 0-.125.016t-.125.078L7.75 28.25q-.125.094-.266.14t-.296.047q-.188 0-.344-.062t-.313-.188l-2.656-2.656q-.25-.218-.266-.562t.172-.625l1.781-2.438q.063-.093.079-.203t-.047-.203q-.25-.5-.469-1t-.375-1.031q-.031-.125-.125-.203t-.219-.078l-2.937-.375q-.313-.032-.547-.297t-.235-.61v-3.843q0-.313.22-.579t.562-.296l2.968-.376q.125-.03.22-.109t.124-.172q.157-.531.36-1.031t.484-.969q.031-.125.031-.234t-.093-.203L3.75 7.75q-.219-.281-.203-.625t.265-.594L6.47 3.875q.125-.125.297-.203t.328-.078.297.047.265.14l2.407 1.844.124.063.126.03q.03 0 .078-.015t.109-.047q.469-.25.984-.453t1.016-.39q.125-.032.203-.11t.078-.203l.406-3.031q.032-.344.297-.563t.61-.219h3.812q.375 0 .625.235t.282.547l.375 3.031q.03.094.093.188t.188.125q.5.156.984.359t.953.453q.032.031.078.031h.11l.125-.015.125-.047 2.406-1.875q.125-.063.266-.11t.297-.046q.187 0 .343.062t.313.188l2.656 2.656q.25.218.266.562t-.172.625l-1.813 2.407q-.093.093-.093.218t.062.219q.25.469.453.984t.39 1.016q.032.125.126.203t.187.078l3 .406q.344.032.563.297t.218.61v3.812q0 .344-.218.61t-.563.297l-2.968.406q-.125 0-.22.078t-.124.203q-.157.5-.36.984t-.453.953q-.062.125-.047.235t.078.203l1.813 2.375q.219.281.203.625t-.265.594l-2.657 2.656q-.125.125-.281.203t-.344.078q-.156 0-.297-.047t-.265-.14l-2.438-1.813q-.031-.031-.093-.047t-.125-.015-.11.015-.078.016q-.5.281-1 .484t-1 .36q-.125.031-.188.125t-.093.218l-.407 2.97q-.03.343-.296.562t-.578.218h-3.844zm-3.813-7q.125 0 .25.032t.219.093q.719.438 1.469.75t1.562.5q.281.063.469.266t.25.485l.344 2.718q0 .157.11.25t.265.094h1.562q.157 0 .266-.11t.11-.234l.374-2.718q.032-.282.219-.485t.469-.265q.812-.188 1.578-.516t1.484-.766q.094-.062.219-.093t.25-.032q.156 0 .297.032t.265.125l2.22 1.625q.03.062.093.078t.125.015q.094 0 .156-.031t.125-.094l1.063-1.062q.093-.094.11-.25t-.079-.25l-1.656-2.188q-.157-.218-.172-.5t.14-.531q.438-.688.75-1.453t.5-1.578q.063-.282.266-.469t.485-.219l2.718-.375q.125 0 .235-.125t.109-.25V15.22q0-.156-.11-.266t-.234-.11l-2.718-.374q-.282-.031-.5-.219t-.282-.469q-.187-.812-.515-1.594t-.766-1.468q-.156-.25-.14-.531t.171-.532l1.657-2.187q.093-.125.078-.266t-.11-.266l-1.062-1.03q-.032-.063-.11-.095t-.172-.03q-.062 0-.125.03t-.093.063L22.25 7.563q-.125.093-.266.14t-.297.047q-.125 0-.25-.047t-.218-.11q-.719-.437-1.469-.75t-1.563-.468q-.28-.063-.468-.281t-.219-.5l-.344-2.75q-.031-.125-.14-.235T16.75 2.5h-1.531q-.156 0-.266.094t-.11.25l-.374 2.75q-.031.281-.219.5t-.469.281q-.812.188-1.594.5t-1.5.781q-.093.063-.218.094t-.25.031q-.156 0-.297-.047t-.266-.14L7.47 5.937l-.125-.062-.125-.031-.14.031-.141.094L5.905 7q-.093.094-.11.25t.079.281l1.688 2.125q.156.219.171.516t-.14.547q-.438.719-.766 1.484t-.516 1.578q-.062.281-.28.485t-.5.234l-2.688.344q-.125 0-.235.11t-.109.265v1.531q0 .156.11.266t.234.14l2.687.344q.282.031.485.219t.265.468q.188.813.516 1.594t.766 1.5q.156.219.14.5t-.172.532L5.906 24.53q-.062.094-.062.25t.125.25l1.062 1.063q.063.062.125.093t.157.032q.062 0 .125-.032t.093-.062l2.188-1.656q.125-.063.265-.11t.297-.047z" fill="#444444" class="nc-icon-wrapper"/></g></svg>