<svg id="icon-uniE91F" viewBox="0 0 32 32" xmlns="http://www.w3.org/2000/svg" width="32" height="32"><title>icon uniE91F</title><g class="nc-icon-wrapper" fill="#444444"><path d="M16 30.938q-3.094 0-5.813-1.188-2.718-1.156-4.75-3.188t-3.187-4.75Q1.062 19.095 1.062 16t1.188-5.813q1.156-2.718 3.188-4.75t4.75-3.187Q12.905 1.062 16 1.062t5.813 1.188q2.718 1.156 4.75 3.188t3.187 4.75q1.188 2.718 1.188 5.812t-1.188 5.813q-1.156 2.718-3.188 4.75t-4.75 3.187Q19.095 30.938 16 30.938zM16 3.03q-2.688 0-5.031 1.031-2.375 1.032-4.125 2.782t-2.782 4.125Q3.032 13.313 3.032 16t1.03 5.031q1.032 2.375 2.782 4.14t4.125 2.767q2.344 1.03 5.031 1.03t5.031-1.03q2.375-1 4.14-2.766t2.767-4.14q1.03-2.345 1.03-5.032t-1.03-5.031q-1-2.375-2.766-4.125t-4.14-2.782Q18.686 3.032 16 3.032zm0 17.688q-.375 0-.656-.266t-.313-.64q-.031-.094.219-1.75t2.375-3.375q.656-.532.922-1.079t.265-1.359q0-1.219-.828-2.078T16 9.312q-1.219 0-2.016.797t-.796 2.016q0 .406-.297.688t-.704.28-.687-.28-.281-.688q0-2.031 1.39-3.406T16 7.344q1.969 0 3.375 1.437t1.406 3.469q0 1.25-.468 2.203t-1.47 1.766q-1.374 1.125-1.624 2.156t-.25 1.281q.031.407-.235.719t-.672.313l-.062.03zm-.188 3.875q-.406-.094-.64-.422T15 23.437q.063-.343.36-.593t.64-.25q.313.031.5.14t.313.266q.093.156.14.344t.016.375q-.063.406-.344.64t-.625.235h-.188z" fill="#444444" class="nc-icon-wrapper"/></g></svg>