<svg id="icon-uniE934" viewBox="0 0 32 32" xmlns="http://www.w3.org/2000/svg" width="32" height="32"><title>icon uniE934</title><g class="nc-icon-wrapper" fill="#ffffff"><path d="M16.594 31.156q-.25 0-.469-.14t-.313-.391l-4.624-10.281q-.032-.063-.079-.11T11 20.156l-9.688-5.343q-.218-.126-.343-.36t-.125-.484q.031-.25.172-.469t.39-.313l28.5-12.28q.094-.032.172-.048t.172-.015q.156 0 .281.047T30.75 1q.031 0 .078.047l.047.047.047.047.047.046q0 .032.047.094t.047.094q.03 0 .046.047t.016.078l.016.047.015.047v.218l-.062.22-.016.046-.015.078-13.625 28.5q-.125.219-.344.36t-.469.14h-.031zm9.375-23.875q-.063 0-.14.032t-.142.093L13.095 19.594q-.094.093-.11.218t.016.25l3.281 7.282q.063.093.157.172t.218.078q.125 0 .219-.063t.156-.187l9.313-19.469q.062-.156.015-.297t-.14-.203q-.063-.063-.125-.078t-.125-.016zM24.28 5.344h-.093l-.063.031L4.53 13.781q-.125.063-.187.156t-.063.188q0 .125.047.234t.172.141l6.906 3.844q.063.031.11.031h.078q.094 0 .156-.016t.125-.078l12.688-12.25q.062-.093.093-.187t0-.188q0-.093-.062-.172t-.157-.109q-.03-.031-.078-.031h-.078z" fill="#ffffff" class="nc-icon-wrapper"/></g></svg>