<svg id="icon-uniE988" viewBox="0 0 32 32" xmlns="http://www.w3.org/2000/svg" width="32" height="32"><title>icon uniE988</title><g class="nc-icon-wrapper" fill="#444444"><path d="M16 0q-3.313 0-6.219 1.25-2.937 1.25-5.11 3.422T1.25 9.782Q0 12.686 0 16t1.25 6.219q1.25 2.937 3.422 5.11t5.11 3.421Q12.686 32 16 32t6.219-1.25q2.937-1.25 5.11-3.422t3.421-5.11Q32 19.314 32 16t-1.25-6.219q-1.25-2.937-3.422-5.11t-5.11-3.421Q19.314 0 16 0zm0 30q-1.469 0-2.86-.297t-2.671-.828l7.281-8.219q.125-.125.188-.297T18 20v-3q0-.406-.297-.703T17 16q-1.313 0-2.625-.563-1.313-.593-2.344-1.28t-1.656-1.282q-.656-.563-.656-.594-.156-.125-.344-.203T9 12H5q-.406 0-.703.297T4 13v6q0 .281.156.531t.407.375L8 21.625V27.5q-1.344-.969-2.469-2.219-1.093-1.218-1.89-2.687t-1.204-3.157Q2 17.782 2 16q0-1.594.344-3.11t1-2.89H7q.188 0 .375-.078t.344-.203l4-4q.125-.157.203-.344T12 5V2.594q.938-.281 1.953-.438T16 2q1.656 0 3.203.36t2.922 1.046q-.094.094-.188.172t-.187.172q-.844.844-1.297 1.953T20 8t.453 2.297 1.297 1.953q.875.844 1.969 1.297T26 14h.281q.188.594.375 1.688.188 1.062.235 2.546t-.141 3.36q-.156 1.875-.719 4.031 0 .031-.015.078t-.016.078q-.938 1-2.063 1.75-1.156.782-2.421 1.328t-2.641.86Q17.469 30 16 30z" fill="#444444" class="nc-icon-wrapper"/></g></svg>