<svg id="icon-uniE9F1" viewBox="0 0 32 32" xmlns="http://www.w3.org/2000/svg" width="32" height="32"><title>icon uniE9F1</title><g class="nc-icon-wrapper" fill="#ffffff"><path d="M25.594 24.406Q25 23.813 25 23t.594-1.406q1.218-1.188 1.812-2.688.594-1.468.594-3t-.594-3.031q-.593-1.469-1.812-2.688Q25 9.595 25 8.797t.594-1.39T27 6.811t1.406.594q1.719 1.72 2.594 3.908.844 2.218.844 4.515T31 20.375q-.875 2.219-2.594 4.031-.468.594-1.343.594t-1.47-.594zM22 2Q22 .812 20.922.234t-2.11.172L7.406 8H2q-.906 0-1.453.547T0 10v12q0 .906.547 1.453T2 24h5.406l11.407 7.594q1.03.593 2.109.093T22 30V2z" fill="#ffffff" class="nc-icon-wrapper"/></g></svg>