<svg id="icon-uniE971" viewBox="0 0 32 32" xmlns="http://www.w3.org/2000/svg" width="32" height="32"><title>icon uniE971</title><g class="nc-icon-wrapper" fill="#ffffff"><path d="M13.313 21.5l-2.407-1.969h-8q-.25 0-.422-.172t-.171-.422V6.531q0-.25.171-.422t.422-.171H20.47q.25 0 .422.171t.172.422v5.157h1.187V6.53q0-.718-.531-1.25t-1.25-.531H2.906q-.75 0-1.265.531t-.516 1.25v12.407q0 .75.516 1.265t1.265.516H10.5l2.719 2.25q.156.125.297.172t.234.047q.281 0 .516-.204t.234-.609v-1.656h.063V19.53h-1.25v1.97zm-.25-10.25q.156-.031.515-.11t.922-.203l-.031-.906q-.531.188-.875.281t-.531.157V9.406l.03-.719h-.968v1.407l.031.469q-.219.03-.5.03h-.594q-.156 0-.562-.015T9.437 10.5v.844q.344.062.626.078t.5.015q.343 0 .75-.015t.843-.078l.063 2.594q-.375-.032-.594-.063t-.281-.031q-.5 0-.875.094t-.594.25-.328.374-.11.438q0 .281.141.531t.422.5q.25.219.61.328t.828.11.796-.078.516-.266q.156-.156.25-.422t.125-.61q.313.188.625.423t.656.515l.594-.75q-.563-.406-1.047-.672t-.86-.421q-.03-1-.046-1.735t.015-1.203zM12.03 15.5q-.094.125-.297.172t-.484.047q-.25 0-.453-.047t-.36-.172q-.124-.063-.187-.172t-.063-.234.047-.203.172-.141q.156-.094.36-.14t.484-.047q.188 0 .438.03t.593.095q0 .312-.062.515t-.188.297zM7.562 8.844L7.25 10.28q-.125.75-.188 1.563T7 13.53q0 .688.063 1.453t.187 1.641l.938-.219q-.126-.968-.204-1.75t-.078-1.406q0-.844.157-1.86t.468-2.203l-.969-.343zm15.407 7.531l-.657 3.094h1.782l-.657-3.094h-.468zm6.125-3.5H17.53q-.718 0-1.25.531t-.531 1.25v8.25q0 .75.516 1.266t1.265.515v1.75q0 .407.219.61t.5.203q.094 0 .25-.047t.313-.203l2.468-2.313h7.813q.75 0 1.265-.515t.516-1.266v-8.25q0-.719-.516-1.25t-1.265-.531zm-4.5 8.938l-.25-1.188h-2.282l-.25 1.188H20.5l1.469-6.5h2.5l1.437 6.5h-1.312z" fill="#ffffff" class="nc-icon-wrapper"/></g></svg>