<svg id="icon-uniE9E3" viewBox="0 0 21 32" xmlns="http://www.w3.org/2000/svg" width="21" height="32"><title>icon uniE9E3</title><g class="nc-icon-wrapper" fill="#444444"><path d="M9.817 31.305V26.85H7.444q-1.235-.098-2.373-.585-1.138-.52-2.048-1.333t-1.528-1.885-.812-2.276q-.065-.325-.098-.65t-.032-.65q-.033-.39.178-.618t.537-.227q.292 0 .504.227t.211.585q.065 2.113 1.365 3.722t3.349 2.097q.292.065.568.114t.504.049h1.788q1.366.032 2.26.016t1.739-.049q2.243-.13 3.868-1.82t1.69-3.999v-.276l.033-.081q.033-.26.26-.423t.488-.162q.292.032.487.243t.163.504q-.065 2.21-1.057 3.869t-2.942 2.763q-.812.455-1.722.666t-1.95.211h-1.561v4.422h2.763q.357 0 .569.195t.244.52q0 .325-.228.52t-.585.195H7.054q-.39 0-.617-.195t-.228-.52.228-.52.585-.195h2.795zM4.747 13.36V5.655q0-2.145 1.446-3.591T9.785.617h.715q.813 0 1.284.033t.927.162q1.592.423 2.6 1.74t1.008 2.941q.032 1.626.032 3.186v5.982l-.032 2.828q0 1.983-1.43 3.413t-3.446 1.43h-.91q-.618 0-1.073-.032t-.878-.13q-1.625-.293-2.714-1.642t-1.122-3.072V13.36zm1.462-2.633h8.68V6.712l-.033-1.414q-.032-1.17-.845-2.08t-1.983-1.073q-.618-.065-1.284-.081t-1.35.016q-1.3.098-2.21 1.008t-.943 2.178q-.032.715-.032 1.43v4.031zm.032 1.95v.033q-.032.098-.032.114v4.73q.032 1.17.813 2.113t1.95 1.138l.732.065q.374.033.926.032h.114l.146-.032h.455q1.528 0 2.536-1.008t1.008-2.536v-5.104H6.307l-.066.456z" fill="#444444" class="nc-icon-wrapper"/></g></svg>