<svg id="icon-uniE925" viewBox="0 0 32 32" xmlns="http://www.w3.org/2000/svg" width="32" height="32"><title>icon uniE925</title><g class="nc-icon-wrapper" fill="#ffffff"><path d="M17.906 16.063l7.375-7.375q.407-.407.407-.954t-.407-.953q-.406-.375-.953-.375t-.953.375L16 14.156 8.625 6.781q-.406-.375-.953-.375t-.953.375q-.407.407-.407.953t.407.954l7.375 7.374-7.375 7.375q-.407.407-.407.954t.407.953q.187.187.437.297t.5.109q.282 0 .532-.11t.437-.296L16 17.969l7.375 7.375q.188.187.438.297t.53.109q.25 0 .5-.11t.438-.296q.407-.407.407-.953t-.407-.953l-7.375-7.375z" fill="#ffffff" class="nc-icon-wrapper"/></g></svg>