<svg id="icon-uniE910" viewBox="0 0 32 32" xmlns="http://www.w3.org/2000/svg" width="32" height="32"><title>icon uniE910</title><g class="nc-icon-wrapper" fill="#ffffff"><path d="M16 1.344q-3.031 0-5.688 1.156-2.687 1.156-4.671 3.14T2.5 10.314Q1.344 12.969 1.344 16T2.5 21.688q1.156 2.687 3.14 4.671t4.673 3.141q2.656 1.156 5.687 1.156t5.688-1.156q2.687-1.156 4.671-3.14t3.141-4.672Q30.656 19.03 30.656 16T29.5 10.312q-1.156-2.687-3.14-4.671T21.687 2.5Q19.03 1.344 16 1.344zm12.5 19.031h-4.688q.25-1.063.375-2.156T24.313 16q0-1.094-.125-2.203t-.375-2.172H28.5q.375 1.031.563 2.125T29.25 16t-.188 2.25-.562 2.125zm-11.531 8.844h-.25V21.78h5.218q-.75 2.094-2 4t-2.967 3.44zm-1.938 0q-1.719-1.532-2.969-3.438t-2-4h5.22v7.438h-.251zM2.75 16q0-1.156.188-2.25t.562-2.125h4.688q-.25 1.063-.376 2.156T7.688 16t.125 2.219.375 2.156H3.5q-.375-1.031-.563-2.125T2.75 16zm6.344 0q0-1.125.14-2.219t.422-2.156h5.625v8.75H9.656q-.281-1.063-.422-2.156T9.094 16zM15.03 2.781h.25v7.438h-5.219q.75-2.125 2-4.016t2.97-3.422zm1.938 0q1.718 1.531 2.968 3.422t2 4.016H16.72V2.78h.25zm-.25 17.594v-8.75h5.625q.281 1.063.422 2.156t.14 2.219-.14 2.219-.422 2.156h-5.625zm11.187-10.156h-4.5q-.625-1.938-1.64-3.719t-2.422-3.313q1.437.376 2.687 1.032 1.282.656 2.39 1.562t1.985 2.032 1.5 2.406zm-15.25-7.031Q11.25 4.718 10.234 6.5t-1.64 3.719h-4.5q.625-1.281 1.5-2.406T7.578 5.78t2.39-1.562 2.688-1.032zM4.094 21.78h4.5q.625 1.938 1.64 3.719t2.422 3.313q-1.437-.375-2.719-1.032t-2.374-1.56-1.97-2.032-1.5-2.406zm15.25 7.032Q20.75 27.28 21.78 25.5t1.625-3.719h4.5q-.625 1.282-1.5 2.407t-1.968 2.03-2.375 1.563-2.72 1.032z" fill="#ffffff" class="nc-icon-wrapper"/></g></svg>