<svg id="icon-uniE92F" viewBox="0 0 32 32" xmlns="http://www.w3.org/2000/svg" width="32" height="32"><title>icon uniE92F</title><g class="nc-icon-wrapper" fill="#444444"><path d="M3.063 31.156q-.907 0-1.547-.64t-.641-1.547V13.406q0-.906.64-1.547t1.548-.64H9.53q.375 0 .64.265t.267.641q0 .344-.266.61t-.64.265h-6.47q-.187 0-.296.125t-.11.281V28.97q0 .156.11.265t.296.11h25.875q.188 0 .297-.11t.11-.265V13.406q0-.156-.11-.281T28.937 13H22.47q-.375 0-.625-.266t-.25-.609q0-.375.25-.64t.625-.266h6.468q.907 0 1.547.64t.641 1.547V28.97q0 .906-.64 1.547t-1.547.64H3.063zm12.843-7.812l-.078-.016-.11-.015-.03-.016-.063-.016-.031-.015-.031-.016-.063-.047-.094-.047q.031 0 0-.015t-.031-.047l-5.188-5.188q-.124-.125-.187-.281t-.063-.344.063-.343.188-.282l.015-.015.016-.016q.125-.125.281-.172t.313-.047q.187 0 .343.063t.281.187l2.97 2.969q.062.063.14.094t.14.031.094-.016.063-.015q.125-.063.187-.157t.063-.218V1.75q0-.375.265-.64T16 .843t.64.265.266.641v17.594q0 .125.063.218t.156.157q.063 0 .094.015t.062.016q.094 0 .172-.031t.11-.094l2.968-2.969q.125-.125.297-.187t.36-.063q.156 0 .328.063t.297.187.187.297.063.328q0 .188-.063.344t-.188.281l-5.187 5.188-.063.062-.046.032-.047.03-.094.063q-.031 0-.063.016l-.03.015q-.032 0-.063.016t-.063.016l-.078.015-.078.016-.094-.031z" fill="#444444" class="nc-icon-wrapper"/></g></svg>