<svg id="icon-uniE97B" viewBox="0 0 32 32" xmlns="http://www.w3.org/2000/svg" width="32" height="32"><title>icon uniE97B</title><g class="nc-icon-wrapper" fill="#444444"><path d="M30.25 19.594q-.063-.032-.125-.032H30q-.125 0-.25.032l-.25.062q-.406 1.563-1.125 3t-1.719 2.657h.063l.062-.032q1.375-.468 2.703-1.703t1.61-2.547q.156-.875-.203-1.14t-.641-.297zm.469-9.157q-.5-.937-1.25-1.703t-1.75-1.359l-.407-.203-.437-.203q1.469 1.875 2.281 4.172T29.97 16q0 .188-.016.375t-.015.375q.25-.063.468-.14t.407-.204q.437-.218.671-.734t.235-1.422q0-.969-.25-1.922t-.75-1.89zM18.5 14.72h8.406q.219 0 .39-.156t.142-.376q-.094-1.218-.438-2.171t-.969-1.61-1.468-1-1.875-.344q-.97 0-1.797.344t-1.453 1.031q-.594.657-.97 1.594t-.53 2.125q-.032.219.156.39t.406.173zm9.406 2.219H18.5q-.25 0-.422.156t-.14.406q.03.781.203 1.5t.484 1.344q.344.656.813 1.187t1.062.875 1.234.516 1.328.172q.47 0 .891-.063t.828-.156q.375-.125.75-.297t.75-.39q.344-.22.672-.47t.61-.5q.312-.28.765-.702t.672-.61q.094-.093.203-.156t.266-.094q.187-.718.297-1.437t.14-1.469q-.406.094-.906.14t-1.094.047zm-4.687 8.875q-2.344-.032-4.14-.688T16 23.156t-1.922-3.093-.64-4.094q0-1.063.156-2.063T14.063 12t.78-1.688 1.063-1.437q.625-.625 1.36-1.125t1.64-.844q.875-.343 1.86-.531t2.078-.188q1.156 0 2.14.204t1.86.578q-1-1.313-2.313-2.407Q23.25 3.5 21.75 2.75t-3.188-1.156q-1.656-.407-3.468-.407-3.063 0-5.75 1.157Q6.625 3.5 4.625 5.516t-3.188 4.703Q.282 12.938.282 16t1.156 5.781q1.188 2.688 3.188 4.703t4.719 3.172q2.687 1.157 5.75 1.157 1.75 0 3.406-.375 1.625-.375 3.094-1.094t2.75-1.75q1.25-1 2.281-2.282-.75.25-1.594.375t-1.812.125z" fill="#444444" class="nc-icon-wrapper"/></g></svg>