<svg id="icon-uniE967" viewBox="0 0 32 32" xmlns="http://www.w3.org/2000/svg" width="32" height="32"><title>icon uniE967</title><g class="nc-icon-wrapper" fill="#ffffff"><path d="M28.375 8.594q.125.094.234.203t.203.234q.063.156.094.297t.032.297q.03.125.015.234t-.078.235q-.031.125-.11.219t-.14.187l-.188.125-.187.125q-.125.031-.234.047t-.266.015l-21.188-.03 4 4q.126.124.188.28t.094.344-.031.375-.188.344l-.406.406q-.156.157-.313.219t-.344.063-.343-.063-.281-.219l-6.063-6.093-.344-.313q-.125-.125-.187-.266t-.063-.328q0-.094.016-.172t.047-.14q.062-.063.11-.14t.108-.142l.376-.25v-.062L9.03 2.531l.125-.062.125-.063q.094-.031.172-.047t.14-.015q.095.031.173.047t.14.078q.094.031.156.078t.157.078l.469.469q.093.125.156.281t.062.344-.062.344-.188.28L6.531 8.407l21.219.031q.156 0 .313.047t.312.11zm-25.5 15.469q-.156-.063-.266-.172t-.171-.266q-.063-.125-.094-.281l-.063-.313q0-.093.016-.218t.078-.22q.031-.124.094-.218t.156-.188.188-.156.187-.093q.125-.032.234-.063t.266-.031l21.188.031-4-3.969q-.125-.125-.204-.297t-.078-.359q-.031-.188.032-.36t.187-.328l.406-.437q.157-.125.313-.188t.343-.062.344.063.282.187l6.062 6.125.344.281q.125.125.172.282t.047.343q0 .063-.016.14t-.047.173q-.031.062-.078.125t-.11.125l-.375.281v.031l-6.093 6.094q-.063.063-.125.094t-.157.062q-.062.032-.14.047t-.14-.015q-.095 0-.173-.032t-.14-.062q-.094-.032-.172-.078t-.14-.078l-.47-.47q-.125-.124-.171-.28t-.047-.344.062-.344.188-.281l4.125-4.063L3.5 24.22q-.188 0-.328-.032t-.297-.125z" fill="#ffffff" class="nc-icon-wrapper"/></g></svg>