<svg id="icon-uniE9DE" viewBox="0 0 32 32" xmlns="http://www.w3.org/2000/svg" width="32" height="32"><title>icon uniE9DE</title><g class="nc-icon-wrapper" fill="#ffffff"><path d="M11.844 6.625q.656.094 1.047.625t.296 1.188-.624 1.046-1.188.297l-5.156-.75q-.625-.094-1.032-.625T4.875 7.22l.781-5.25q.094-.657.625-1.047T7.47.625q.656.125 1.062.656t.281 1.188l-.53 3.625 3.562.531zm-4.25 1.938q-.469.468-1.125.468t-1.125-.469-.469-1.124.469-1.125q2.156-2.157 4.875-3.25t5.531-1.094 5.563 1.093q2.718 1.063 4.875 3.22 2.187 2.187 3.25 4.905 1.093 2.72 1.109 5.563t-1.078 5.563q-1.063 2.718-3.219 4.906-2.156 2.156-4.875 3.25t-5.563 1.093T10.25 30.5q-2.75-1.063-4.938-3.219-1.062-1.062-1.828-2.25T2.22 22.594q-.375-.907-.547-1.64T1.47 19.75q-.063-.656.375-1.172t1.093-.547q.657-.062 1.157.36t.562 1.078q.032.281.14.781t.391 1.156q.375.969.97 1.875T7.561 25q1.72 1.688 3.875 2.531 2.126.844 4.36.828t4.36-.859 3.812-2.531q1.687-1.719 2.531-3.844.844-2.156.844-4.375t-.844-4.375q-.875-2.125-2.563-3.813-1.718-1.687-3.843-2.53-2.125-.876-4.344-.876t-4.344.875q-2.125.844-3.812 2.532z" fill="#ffffff" class="nc-icon-wrapper"/></g></svg>