<svg id="icon-uniE919" viewBox="0 0 32 32" xmlns="http://www.w3.org/2000/svg" width="32" height="32"><title>icon uniE919</title><g class="nc-icon-wrapper" fill="#444444"><path d="M21.031 17.469q-1.312 0-2.515-.5t-2.11-1.438q-.937-.937-1.437-2.14t-.5-2.516q0-1.375.531-2.563.5-1.218 1.39-2.109t2.079-1.422q1.218-.5 2.562-.5 1.313 0 2.5.5t2.125 1.438 1.422 2.14.485 2.516q0 1.375-.5 2.563-.532 1.218-1.422 2.109t-2.078 1.422q-1.188.5-2.532.5zm0-11.719q-2.093 0-3.578 1.5t-1.484 3.625 1.484 3.625 3.578 1.5 3.578-1.5 1.485-3.625-1.485-3.625-3.578-1.5zM10.656 16q-2.094 0-3.578-1.5t-1.484-3.625T7.078 7.25t3.578-1.5q.844 0 1.61.281t1.39.782q.188-.313.39-.625t.454-.594q-.844-.625-1.813-.969t-2.03-.344q-1.376 0-2.563.5-1.188.532-2.078 1.422t-1.391 2.11q-.531 1.187-.531 2.562 0 1.313.5 2.516t1.437 2.14q.907.938 2.11 1.438t2.515.5q1.063 0 2.031-.36t1.782-.953q-.219-.281-.422-.593t-.39-.626q-.626.47-1.391.766t-1.61.297zM2.937 26.25l.594-5.344 3.219-1.281-.563-1.375-4.03 1.625-.876 7.844h8.5l.188-1.469H2.938zm27.782 1.469H11.656l.875-7.844 4.031-1.625.563 1.375-3.219 1.281-.594 5.344h15.75l-.593-5.344-3.219-1.281.563-1.375 4.03 1.625z" fill="#444444" class="nc-icon-wrapper"/></g></svg>