<svg id="icon-uniE926" viewBox="0 0 32 32" xmlns="http://www.w3.org/2000/svg" width="32" height="32"><title>icon uniE926</title><g class="nc-icon-wrapper" fill="#ffffff"><path d="M8 13.344q-1.094 0-1.875.781T5.344 16t.781 1.875T8 18.656t1.875-.781.781-1.875-.781-1.875T8 13.344zm16 0q-1.094 0-1.875.781T21.344 16t.781 1.875 1.875.781 1.875-.781.781-1.875-.781-1.875T24 13.344zm-8 0q-1.094 0-1.875.781T13.344 16t.781 1.875 1.875.781 1.875-.781.781-1.875-.781-1.875T16 13.344z" fill="#ffffff" class="nc-icon-wrapper"/></g></svg>