<?xml version="1.0" encoding="UTF-8" standalone="no"?>
<!DOCTYPE svg PUBLIC "-//W3C//DTD SVG 1.1//EN" "http://www.w3.org/Graphics/SVG/1.1/DTD/svg11.dtd">
<svg version="1.1" xmlns="http://www.w3.org/2000/svg" xmlns:xlink="http://www.w3.org/1999/xlink" preserveAspectRatio="xMidYMid meet" viewBox="-1 -1 35.844 35.89918907097412" width="31.84" height="31.9"><defs><path d="M25 23.02C25 22.2 25.53 21.75 25.59 21.61C26.81 20.42 27.22 19.19 27.41 18.92C28 17.46 27.94 16.22 28 15.92C28 14.39 27.47 13.2 27.41 12.89C26.81 11.42 25.78 10.47 25.59 10.2C25 9.61 25.06 8.95 25 8.81C25 8.02 25.53 7.56 25.59 7.42C26.19 6.83 26.86 6.89 27 6.83C27.81 6.82 28.27 7.36 28.41 7.42C30.13 9.14 30.74 10.94 31 11.33C31.84 13.55 31.76 15.39 31.84 15.85C31.84 18.14 31.08 19.94 31 20.39C30.13 22.61 28.67 24.02 28.41 24.42C27.94 25.02 27.2 24.96 27.06 25.02C26.48 25.02 25.99 24.82 25.59 24.42C25.24 23.58 25.04 23.11 25 23.02ZM20.92 0.25C20.2 -0.13 19.5 -0.08 18.81 0.42L7.41 8.02C4.16 8.02 2.36 8.02 2 8.02C1.09 8.02 0.69 8.51 0.55 8.56C0.18 8.93 0 9.41 0 10.02C0 17.22 0 21.22 0 22.02C0 22.92 0.49 23.33 0.55 23.47C0.91 23.84 1.4 24.02 2 24.02L7.41 24.02C14.25 28.57 18.05 31.11 18.81 31.61C19.84 32.2 20.71 31.7 20.92 31.7C21.64 31.37 22 30.81 22 30.02L22 2.02C21.35 0.96 20.99 0.37 20.92 0.25Z" id="f2xMt3h3UP"></path></defs><g><g><use xlink:href="#f2xMt3h3UP" opacity="1" fill="#cfd9f3" fill-opacity="1"></use><g><use xlink:href="#f2xMt3h3UP" opacity="1" fill-opacity="0" stroke="#000000" stroke-width="1" stroke-opacity="0"></use></g></g></g></svg>