<svg id="icon-uniE94D" viewBox="0 0 32 32" xmlns="http://www.w3.org/2000/svg" width="32" height="32"><title>icon uniE94D</title><g class="nc-icon-wrapper" fill="#444444"><path d="M13.5 11.969h5.594v1.781H13.5v-1.781zm-3.094 4.781h-1.75v-2.531q0-.031.235-1t1.078-2.094q.781-1.063 2.39-2.063t4.454-1h2.28v1.75h-2.28q-1.813 0-3.157.579t-2.219 1.703q-.593.781-.796 1.453t-.235.86v2.343zm8.594.438v-4.344h.094v-.875h1.656v1.969l4.969-3.25-4.969-3.25v2.375h-1.656v-.876H19v-4.75l9.938 6.5zm7.344 10.625H3.062V8.063H8.72v1.75H4.813v16.25h19.78V15.938h1.75v11.874z" fill="#444444" class="nc-icon-wrapper"/></g></svg>