<svg id="icon-uniE93F" viewBox="0 0 32 32" xmlns="http://www.w3.org/2000/svg" width="32" height="32"><title>icon uniE93F</title><g class="nc-icon-wrapper" fill="#444444"><path d="M20.563 26.594q-.782 0-1.329-.547t-.547-1.328V7.28q0-.781.547-1.328t1.328-.547 1.329.547.547 1.328v17.44q0 .375-.141.718t-.422.625q-.25.25-.594.391t-.718.14zm-9.125 0q-.782 0-1.329-.547t-.546-1.328V7.28q0-.781.546-1.328t1.329-.547 1.328.547.546 1.328v17.44q0 .375-.14.718t-.39.625q-.282.25-.626.391t-.719.14z" fill="#444444" class="nc-icon-wrapper"/></g></svg>