<svg id="icon-uniE903" viewBox="0 0 32 32" xmlns="http://www.w3.org/2000/svg" width="32" height="32"><title>icon uniE903</title><g class="nc-icon-wrapper" fill="#ffffff"><path d="M8.344 11.906q-.406 0-.688-.297t-.281-.703.281-.703.688-.297h15.312q.407 0 .703.297t.297.703-.297.703-.703.297H8.344zm0 3.813q-.406 0-.703-.297t-.297-.703.297-.688.703-.281h10.219q.406 0 .687.281t.281.688-.281.703-.688.297H8.345zM7.063 29.75q-.063 0-.141-.016t-.172-.047q-.313-.093-.484-.359t-.172-.578v-6.375q0-.406.281-.703t.688-.297q.437 0 .718.297t.282.703v3.531l3.343-4.156q.125-.188.328-.281t.454-.094q.156 0 .312.063t.281.156q.156.125.25.297t.125.359q.031.219-.031.406t-.188.344l-5.093 6.375q-.125.156-.328.266t-.454.109zm5.125-6.375q-.438 0-.72-.297t-.28-.703.28-.703.72-.297H29.03V4.25H2.97v17.125h4.094q.437 0 .718.297t.282.703-.282.703-.718.297H3.25q-.938 0-1.594-.672T1 21.093V4.532q0-.937.656-1.61T3.25 2.25h25.5q.938 0 1.594.672T31 4.532v16.562q0 .468-.156.875t-.5.75q-.313.312-.735.484t-.859.172H12.187z" fill="#ffffff" class="nc-icon-wrapper"/></g></svg>