<svg xmlns="http://www.w3.org/2000/svg" data-name="Layer 1" viewBox="0 0 512 512"><path d="M160.5,80h191a7.5,7.5,0,0,0,0-15h-191a7.5,7.5,0,0,0,0,15Zm0,90h191a7.5,7.5,0,0,0,0-15h-191a7.5,7.5,0,0,0,0,15Zm0-45h191a7.5,7.5,0,0,0,0-15h-191a7.5,7.5,0,0,0,0,15ZM505.41016,96.61328,494.80371,86.00684a22.50121,22.50121,0,0,0-31.82031,0L428,120.99023V37.5A37.54227,37.54227,0,0,0,390.5,0h-269A37.54227,37.54227,0,0,0,84,37.5V427H43.49512a7.49943,7.49943,0,0,0-7.5,7.5v40a37.54226,37.54226,0,0,0,37.5,37.5h318a7.59973,7.59973,0,0,0,.81421-.0459A37.54473,37.54473,0,0,0,428,474.5V205.84473l77.41016-77.41016A22.52781,22.52781,0,0,0,505.41016,96.61328ZM73.49512,497a22.52586,22.52586,0,0,1-22.5-22.5V442h299v31a38.79574,38.79574,0,0,0,8.293,24ZM413,434.40332c-.00049.03272-.00488.064-.00488.09668V473a24,24,0,0,1-48,0V434.5a7.49943,7.49943,0,0,0-7.5-7.5c-.16895,0-.334.01416-.5.02539-.166-.01123-.33106-.02539-.5-.02539H99V37.5A22.52586,22.52586,0,0,1,121.5,15h269A22.52586,22.52586,0,0,1,413,37.5v98.49023L273.99023,275H160.5a7.5,7.5,0,0,0,0,15h98.49023L229.6377,319.35254a7.53354,7.53354,0,0,0-.55127.61963L229.06592,320H160.5a7.5,7.5,0,0,0,0,15h63.0874l-10,30H160.5a7.5,7.5,0,0,0,0,15h56a7.51907,7.51907,0,0,0,1.61133-.17773,7.26416,7.26416,0,0,0,3.292-.32129l47.73047-15.91016c.04858-.01611.094-.03955.14233-.05664.18311-.06543.36377-.13672.54248-.2168.07666-.03418.15259-.06884.228-.106.17432-.08448.34473-.17823.51343-.27735.07056-.0415.1416-.08056.21094-.12451.17065-.1084.33618-.22656.49951-.3501.05835-.04394.11963-.084.17676-.12988a7.54521,7.54521,0,0,0,.61816-.55029L298.84473,335H351.5a7.5,7.5,0,0,0,0-15H313.84473L413,220.84473ZM238.219,338.541l14.65747,14.65722-21.98681,7.3291Zm28.54273,7.32714-21.21289-21.21191L425.78735,144.41748l.03077-.03027,19.6018-19.60205,21.21192,21.21289Zm228.041-228.041-17.56347,17.56347-21.21192-21.21289,17.56348-17.56347a7.49726,7.49726,0,0,1,10.60547,0l10.60644,10.60644A7.50729,7.50729,0,0,1,494.80273,117.82715Z"/></svg>