<svg width="21" height="20" viewBox="0 0 21 20" fill="none" xmlns="http://www.w3.org/2000/svg">
<path d="M13.5134 6.44531C13.5134 2.89137 10.6221 0 7.06812 0C3.51417 0 0.622803 2.89137 0.622803 6.44531C0.622803 8.0743 0.925771 9.69387 1.21874 11.2601C1.5019 12.7738 1.79468 14.3391 1.79468 15.8594C1.79468 18.1425 3.63464 20 5.89624 20C8.15784 20 9.9978 18.1425 9.9978 15.8594C9.9978 15.5684 9.96745 15.2531 9.91444 14.9943C9.62854 13.5971 10.6576 11.9709 11.6257 11.0028C12.843 9.78547 13.5134 8.16691 13.5134 6.44531ZM8.7664 15.2293C8.80366 15.4114 8.82593 15.647 8.82593 15.8594C8.82593 17.4963 7.51167 18.8281 5.89624 18.8281C4.28081 18.8281 2.96655 17.4963 2.96655 15.8594C2.96655 14.2304 2.66358 12.6108 2.37062 11.0446C2.08745 9.5309 1.79468 7.96562 1.79468 6.44531C1.79468 3.53754 4.16034 1.17188 7.06812 1.17188C9.97589 1.17188 12.3416 3.53754 12.3416 6.44531C12.3416 7.85391 11.793 9.17816 10.797 10.1742C9.56698 11.4043 8.38757 13.3782 8.7664 15.2293Z" fill="#333333"/>
<path d="M7.8344 2.41386C5.25937 1.94226 2.96655 3.91218 2.96655 6.44523C2.96655 7.8557 3.23624 9.28898 3.52241 10.8098C3.61433 11.2981 3.70937 11.803 3.79464 12.306C3.96733 13.3237 4.8296 14.0624 5.84499 14.0624C6.8321 14.0624 7.68901 13.3599 7.88257 12.392C7.88401 12.2119 8.58956 10.3207 7.12354 8.53242C6.38456 7.63101 5.31179 7.09281 4.15515 7.03617C4.14425 6.83734 4.13843 6.64043 4.13843 6.44523C4.13843 4.67894 5.73065 3.22 7.62331 3.56656C9.92261 3.98765 10.8007 6.85504 9.13983 8.51734L9.96886 9.34562C12.2754 7.03707 11.0912 3.01031 7.8344 2.41386ZM6.21729 9.27535C7.29241 10.5868 6.73729 11.9616 6.73343 12.1622C6.64901 12.5842 6.27538 12.8905 5.84499 12.8905C5.40315 12.8905 5.02679 12.5623 4.95007 12.11C4.863 11.5966 4.76694 11.0864 4.67347 10.5897C4.52011 9.77468 4.37151 8.98496 4.26999 8.22019C5.02952 8.30234 5.72647 8.67668 6.21729 9.27535Z" fill="#333333"/>
<path d="M20.6228 9.375H14.7244V10.5469H20.6228V9.375Z" fill="#333333"/>
<path d="M15.5717 14.124L15.0476 15.1721L19.7347 17.5157L20.2587 16.4676L15.5717 14.124Z" fill="#333333"/>
<path d="M19.7357 2.40573L15.0486 4.74927L15.5726 5.79736L20.2597 3.45382L19.7357 2.40573Z" fill="#333333"/>
</svg>
