<?xml version="1.0" encoding="UTF-8" standalone="no"?>
<!DOCTYPE svg PUBLIC "-//W3C//DTD SVG 1.1//EN" "http://www.w3.org/Graphics/SVG/1.1/DTD/svg11.dtd">
<svg version="1.1" xmlns="http://www.w3.org/2000/svg" xmlns:xlink="http://www.w3.org/1999/xlink" preserveAspectRatio="xMidYMid meet" viewBox="0 0 640 640" width="48" height="48"><defs><path d="M0 319.7C0 496.5 135.37 640 302.14 640C468.92 640 604.29 497.1 604.29 319.7C604.29 143.1 468.92 0 302.14 0C134.99 -0.4 0 143.1 0 319.7" id="n3X2VWplk"></path><path d="M524.27 199.2C540.91 218.22 550.44 245.57 553.25 280.66C553.62 286.6 547.64 291.56 541.65 291.56C524.58 291.56 388.02 291.56 370.95 291.56C364.97 291.56 358.61 286.01 359.36 279.86C363.28 245.18 373.38 218.22 389.65 199.79C406.85 179.97 429.47 169.86 455.65 170.26C484.07 170.06 507.06 179.77 524.27 199.2M406.1 114.36C396.56 116.54 387.78 119.52 378.99 123.28C354.68 133.39 334.86 147.66 318.41 166.29C302.14 184.92 289.43 207.12 281.02 233.68C279.89 237.85 278.21 242.6 277.09 246.76C277.09 261.53 277.09 379.66 277.09 394.43C285.5 426.14 300.09 452.7 320.47 474.5C355.06 512.56 403.67 531.38 467.24 531.38C494.35 531.38 518.66 527.62 539.22 520.48C576.99 506.61 619.62 465.98 627.1 428.52C631.77 404.14 617.56 398.59 609.9 397.2C608.4 397.2 607.09 396.8 605.41 396.8C596.62 396.8 589.52 399.78 585.03 404.34C579.8 409.29 564.28 424.95 556.42 432.08C548.01 439.62 539.22 446.75 529.69 453.09C520.15 459.83 509.87 464.79 499.02 468.36C488.74 471.33 476.77 472.91 464.43 472.91C445.36 472.91 427.79 467.76 411.9 457.65C396 447.54 383.29 432.68 374.13 413.45C365.34 395.42 360.67 375 359.73 352.21C359.36 344.68 364.97 339.92 371.32 339.92C390.47 339.92 543.64 339.92 562.78 339.92C588.58 339.92 608.22 335.76 621.3 328.62C633.27 322.28 640 308.01 640 281.85C640 254.1 633.27 226.55 619.62 199.59C606.16 172.64 585.78 150.64 558.29 133.79C544.46 124.87 529.31 118.53 512.49 114.36C505.34 114.36 469.63 114.36 405.35 114.36L405.35 114.36C405.75 114.36 406 114.36 406.1 114.36Z" id="b4Udpg5b49"></path><path d="M524.27 199.2C540.91 218.22 550.44 245.57 553.25 280.66C553.62 286.6 547.64 291.56 541.65 291.56C524.58 291.56 388.02 291.56 370.95 291.56C364.97 291.56 358.61 286.01 359.36 279.86C363.28 245.18 373.38 218.22 389.65 199.79C406.85 179.97 429.47 169.86 455.65 170.26C484.07 170.06 507.06 179.77 524.27 199.2M378.99 123.28C354.68 133.39 334.86 147.66 318.41 166.29C302.14 184.92 289.43 207.12 281.02 233.68C272.6 260.24 267.93 288.98 267.93 319.7C267.93 385.51 285.5 437.04 320.47 474.9C355.06 512.95 403.67 531.78 467.24 531.78C493.42 531.78 516.6 528.41 536.98 521.67C564.09 486.19 584.28 444.37 595.13 398.98C591.2 400.17 588.02 402.35 585.22 404.93C579.98 409.89 564.46 425.54 556.61 432.68C548.2 440.21 539.6 447.54 529.87 453.69C520.34 460.43 510.06 465.58 499.21 468.95C488.93 471.92 476.96 473.71 464.62 473.71C445.55 473.71 427.98 468.75 412.08 458.45C396.19 448.34 383.48 433.47 374.31 414.25C365.53 396.01 360.85 375.79 359.92 353C359.54 345.47 365.15 340.71 371.51 340.71C390.66 340.71 543.82 340.71 562.97 340.71C578.86 340.71 592.88 339.13 603.91 336.15C604.29 331.2 604.29 325.65 604.29 320.1C604.29 246.76 580.73 179.18 541.84 124.67C518.28 113.77 491.36 108.22 460.32 108.22C429.85 108.02 403.3 112.98 378.99 123.28" id="a6sfBFamv"></path></defs><g><g><g><g><use xlink:href="#n3X2VWplk" opacity="1" fill="#1b2b66" fill-opacity="1"></use><g><use xlink:href="#n3X2VWplk" opacity="1" fill-opacity="0" stroke="#000000" stroke-width="1" stroke-opacity="0"></use></g></g><g><use xlink:href="#b4Udpg5b49" opacity="1" fill="#1b2b66" fill-opacity="1"></use><g><use xlink:href="#b4Udpg5b49" opacity="1" fill-opacity="0" stroke="#000000" stroke-width="1" stroke-opacity="0"></use></g></g><g><use xlink:href="#a6sfBFamv" opacity="1" fill="#ffffff" fill-opacity="1"></use><g><use xlink:href="#a6sfBFamv" opacity="1" fill-opacity="0" stroke="#000000" stroke-width="1" stroke-opacity="0"></use></g></g></g></g></g></svg>