<?xml version="1.0" encoding="iso-8859-1"?>
<!-- Generator: Adobe Illustrator 19.0.0, SVG Export Plug-In . SVG Version: 6.00 Build 0)  -->
<svg version="1.1" id="Layer_1" xmlns="http://www.w3.org/2000/svg" xmlns:xlink="http://www.w3.org/1999/xlink" x="0px" y="0px"
	 viewBox="0 0 474.736 474.736" style="enable-background:new 0 0 474.736 474.736;" xml:space="preserve">
<circle style="fill:#49A0AE;" cx="237.368" cy="237.368" r="237.368"/>
<path style="fill:#FFFFFF;" d="M395.464,206.6c-27.073-27.073-54.142-54.145-81.214-81.218
	c-25.746-25.746-71.836-6.807-71.836,29.678c0,13.115,0,26.226,0,39.34c-43.654,0-87.309,0-130.967,0
	c-54.456,0-54.94,84.351-0.607,84.351c43.857,0,87.717,0,131.574,0c0,11.443,0,22.882,0,34.325
	c-0.217,2.601-0.157,5.184,0.161,7.732c1.199,18.103,12.084,29.719,25.69,34.798c13.336,6.548,29.648,6.379,43.636-5.727
	c2.256-1.717,4.325-3.684,6.162-5.915c25.907-25.907,51.814-51.814,77.721-77.717C412.086,249.939,411.644,222.78,395.464,206.6z"/>
<g>
</g>
<g>
</g>
<g>
</g>
<g>
</g>
<g>
</g>
<g>
</g>
<g>
</g>
<g>
</g>
<g>
</g>
<g>
</g>
<g>
</g>
<g>
</g>
<g>
</g>
<g>
</g>
<g>
</g>
</svg>
