<?xml version="1.0" encoding="iso-8859-1"?>
<!-- Generator: Adobe Illustrator 19.0.0, SVG Export Plug-In . SVG Version: 6.00 Build 0)  -->
<svg version="1.1" id="Layer_1" xmlns="http://www.w3.org/2000/svg" xmlns:xlink="http://www.w3.org/1999/xlink" x="0px" y="0px"
	 viewBox="0 0 473.654 473.654" style="enable-background:new 0 0 473.654 473.654;" xml:space="preserve">
<circle style="fill:#49A0AE;" cx="236.827" cy="236.827" r="236.827"/>
<path style="fill:#FFFFFF;" d="M370.158,193.946c-43.757,0-87.517,0-131.274,0c0-12.879,0-25.762,0-38.641
	c0-36.996-45.772-56.116-71.991-29.898c-27.011,27.011-54.018,54.022-81.029,81.033c-16.263,16.267-15.822,43.36,0.318,59.508
	c27.011,27.007,54.018,54.014,81.029,81.025c14.173,14.173,31.196,14.921,45.099,8.328c14.768-5.004,26.573-17.632,26.573-37.938
	c0-13.085,0-26.173,0-39.258c43.555,0,87.11,0,130.668,0C423.884,278.105,424.363,193.946,370.158,193.946z"/>
<g>
</g>
<g>
</g>
<g>
</g>
<g>
</g>
<g>
</g>
<g>
</g>
<g>
</g>
<g>
</g>
<g>
</g>
<g>
</g>
<g>
</g>
<g>
</g>
<g>
</g>
<g>
</g>
<g>
</g>
</svg>
