<?xml version="1.0" encoding="UTF-8" standalone="no"?>
<svg
   version="1.0"
   width="648.99042pt"
   height="638.51843pt"
   viewBox="0 0 648.99042 638.51843"
   preserveAspectRatio="xMidYMid"
   id="svg15"
   xmlns="http://www.w3.org/2000/svg"
   xmlns:svg="http://www.w3.org/2000/svg">
  <defs
     id="defs15">
    <clipPath
       clipPathUnits="userSpaceOnUse"
       id="clipPath29">
      <rect
         style="fill:#0000ff;fill-opacity:0;fill-rule:evenodd;stroke-width:7.5"
         id="rect30"
         width="6833.4502"
         height="6572.3198"
         x="1667.4973"
         y="-8401.8496"
         rx="8"
         ry="46.351013"
         transform="scale(1,-1)" />
    </clipPath>
    <clipPath
       clipPathUnits="userSpaceOnUse"
       id="clipPath30">
      <rect
         style="fill:#0000ff;fill-opacity:0;fill-rule:evenodd;stroke-width:7.5"
         id="rect31"
         width="6833.4502"
         height="6572.3198"
         x="1667.4973"
         y="-8401.8496"
         rx="8"
         ry="46.351013"
         transform="scale(1,-1)" />
    </clipPath>
    <clipPath
       clipPathUnits="userSpaceOnUse"
       id="clipPath31">
      <rect
         style="fill:#0000ff;fill-opacity:0;fill-rule:evenodd;stroke-width:7.5"
         id="rect32"
         width="6833.4502"
         height="6572.3198"
         x="1667.4973"
         y="-8401.8496"
         rx="8"
         ry="46.351013"
         transform="scale(1,-1)" />
    </clipPath>
    <clipPath
       clipPathUnits="userSpaceOnUse"
       id="clipPath32">
      <rect
         style="fill:#0000ff;fill-opacity:0;fill-rule:evenodd;stroke-width:7.5"
         id="rect33"
         width="6833.4502"
         height="6572.3198"
         x="1667.4973"
         y="-8401.8496"
         rx="8"
         ry="46.351013"
         transform="scale(1,-1)" />
    </clipPath>
    <clipPath
       clipPathUnits="userSpaceOnUse"
       id="clipPath33">
      <rect
         style="fill:#0000ff;fill-opacity:0;fill-rule:evenodd;stroke-width:7.5"
         id="rect34"
         width="6833.4502"
         height="6572.3198"
         x="1667.4973"
         y="-8401.8496"
         rx="8"
         ry="46.351013"
         transform="scale(1,-1)" />
    </clipPath>
    <clipPath
       clipPathUnits="userSpaceOnUse"
       id="clipPath34">
      <rect
         style="fill:#0000ff;fill-opacity:0;fill-rule:evenodd;stroke-width:7.5"
         id="rect35"
         width="6833.4502"
         height="6572.3198"
         x="1667.4973"
         y="-8401.8496"
         rx="8"
         ry="46.351013"
         transform="scale(1,-1)" />
    </clipPath>
    <clipPath
       clipPathUnits="userSpaceOnUse"
       id="clipPath35">
      <rect
         style="fill:#0000ff;fill-opacity:0;fill-rule:evenodd;stroke-width:7.5"
         id="rect36"
         width="6833.4502"
         height="6572.3198"
         x="1667.4973"
         y="-8401.8496"
         rx="8"
         ry="46.351013"
         transform="scale(1,-1)" />
    </clipPath>
    <clipPath
       clipPathUnits="userSpaceOnUse"
       id="clipPath36">
      <rect
         style="fill:#0000ff;fill-opacity:0;fill-rule:evenodd;stroke-width:7.5"
         id="rect37"
         width="6833.4502"
         height="6572.3198"
         x="1667.4973"
         y="-8401.8496"
         rx="8"
         ry="46.351013"
         transform="scale(1,-1)" />
    </clipPath>
    <clipPath
       clipPathUnits="userSpaceOnUse"
       id="clipPath37">
      <rect
         style="fill:#0000ff;fill-opacity:0;fill-rule:evenodd;stroke-width:7.5"
         id="rect38"
         width="6833.4502"
         height="6572.3198"
         x="1667.4973"
         y="-8401.8496"
         rx="8"
         ry="46.351013"
         transform="scale(1,-1)" />
    </clipPath>
    <clipPath
       clipPathUnits="userSpaceOnUse"
       id="clipPath38">
      <rect
         style="fill:#0000ff;fill-opacity:0;fill-rule:evenodd;stroke-width:7.5"
         id="rect39"
         width="6833.4502"
         height="6572.3198"
         x="1667.4973"
         y="-8401.8496"
         rx="8"
         ry="46.351013"
         transform="scale(1,-1)" />
    </clipPath>
    <clipPath
       clipPathUnits="userSpaceOnUse"
       id="clipPath39">
      <rect
         style="fill:#0000ff;fill-opacity:0;fill-rule:evenodd;stroke-width:7.5"
         id="rect40"
         width="6833.4502"
         height="6572.3198"
         x="1667.4973"
         y="-8401.8496"
         rx="8"
         ry="46.351013"
         transform="scale(1,-1)" />
    </clipPath>
  </defs>
  <g
     transform="matrix(0.1,0,0,-0.1,-185.00954,837.57684)"
     fill="#000000"
     stroke="none"
     id="g15">
    <path
       id="path1"
       d="m 5112.4219,8375.2832 c -13.8301,-0.7871 -27.6758,-2.5381 -41.4258,-5.2881 -59.9999,-13 -118.002,-48.9991 -172.002,-108.999 l -45.9961,-50.9912 h -64.9951 c -121.9998,0 -382.9982,-55.0069 -577.998,-122.0069 -415.9996,-142.9998 -796.0052,-369.0003 -1135.0049,-675 -372.9996,-336.9996 -691.9992,-806.0054 -903.999,-1330.0048 -66,-164.9999 -72.001,-201.9981 -41.001,-262.9981 35,-68.9999 103.9981,-95.0019 172.998,-67.0019 42,17.9999 50.003,33.0119 123.003,222.0117 75.9999,196.9998 208.0021,447.9894 337.0019,643.9892 384.9996,581.9995 962.9977,1022.01 1601.9971,1220.0098 129.9999,40 319.0069,78.9971 422.0068,86.9971 l 80.9912,7.0019 15.9961,-30.9961 c 64,-122.9998 201.008,-185.0077 328.0079,-148.0078 62.9999,18 141.998,81.9952 172.998,139.9951 23,43 34.0041,44.0098 194.0039,20.0098 C 5985.0035,7854.004 6407.0004,7674.9949 6765,7409.9951 6912.9999,7299.9952 7121.9981,7106.9999 7222.998,6985 l 49.9952,-60 -173.9942,-6.0059 c -95.9999,-3 -174.997,-5.9873 -176.997,-6.9873 -13,-9 -41.9971,-73.0098 -41.9971,-95.0097 0,-73 -0.01,-72.9915 473.9941,-305.9912 l 442.002,-218.0127 0.073,-0.2637 320.3613,-160.1221 c -74.7991,258.5922 -193.4198,621.3867 -311.4404,947.3877 -36.9999,101.9999 -91.9922,256.0118 -121.9922,342.0117 -59.9999,170.9999 -88.0039,211.9893 -149.0039,223.9893 -45.9999,9 -77.9971,-0.9952 -116.997,-34.9951 -31,-29 -31.9961,-32.003 -30.9961,-108.003 1,-83.9999 39.9951,-220.9972 109.9951,-386.997 18,-44 31.9961,-80.9981 30.9961,-82.9981 -2,-1 -25.9942,29.9903 -53.9942,69.9903 -228.9997,327.9996 -698.0053,693.0119 -1135.0049,882.0117 C 6032.9984,8117.0048 5681.9998,8208.001 5475,8211.001 h -70.0049 l -41.001,52.0019 c -58.6249,76.125 -154.7618,117.7901 -251.5722,112.2803 z"
       clip-path="url(#clipPath39)" />
    <path
       d="m 4940,7355 c -8,-2 -55,-9 -105,-15 -176,-24 -443,-109 -619,-197 -625,-313 -1071,-914 -1187,-1598 -26,-154 -35,-416 -20,-566 43,-417 200,-814 450,-1139 281,-365 712,-656 1142,-769 208,-55 285,-65 519,-65 233,-1 353,12 533,59 558,145 1048,525 1345,1043 143,249 238,535 273,822 16,130 13,412 -5,542 -64,447 -280,892 -591,1217 -345,359 -711,554 -1220,647 -82,15 -471,30 -515,19 z m -257,-374 c -188,-157 -329,-344 -462,-610 -59,-117 -62,-121 -89,-115 -40,9 -361,91 -404,104 -21,6 -38,15 -38,20 0,6 51,60 113,122 244,244 532,420 832,509 105,31 114,26 48,-30 z m 994,13 c 244,-74 447,-183 658,-355 104,-84 245,-234 245,-260 0,-9 -270,-83 -450,-123 -25,-5 -29,1 -80,112 -97,208 -271,447 -420,577 -92,81 -96,85 -83,85 7,0 65,-16 130,-36 z m -278,-197 c 110,-75 239,-211 332,-349 59,-88 143,-237 136,-244 -12,-13 -476,-64 -579,-64 h -38 v 370 370 l 53,-26 c 28,-15 72,-40 96,-57 z m -379,-293 v -366 l -117,6 c -155,10 -392,34 -454,47 l -48,11 34,67 c 108,216 322,462 480,554 44,26 85,47 92,47 10,0 13,-77 13,-366 z M 3670,6105 c 58,-18 170,-49 250,-70 80,-21 146,-39 148,-41 2,-1 -13,-67 -33,-147 -36,-148 -65,-364 -65,-494 v -73 h -351 -352 l 7,83 c 20,236 104,510 219,715 31,54 45,71 57,66 8,-3 62,-21 120,-39 z m 3117,-27 c 127,-228 205,-476 220,-704 l 6,-94 h -355 -355 l -6,118 c -10,186 -25,283 -79,505 -12,48 -19,90 -16,92 3,3 81,26 174,50 93,25 212,58 264,74 52,16 97,30 101,30 3,1 23,-32 46,-71 z m -803,-165 c 41,-124 72,-317 82,-510 l 7,-123 h -411 -412 v 299 298 l 93,7 c 224,16 407,38 619,75 3,0 13,-20 22,-46 z m -1514,17 c 131,-19 454,-50 523,-50 h 27 v -300 -300 h -410 -410 v 84 c 0,202 72,586 109,586 9,0 82,-9 161,-20 z M 3978,4858 c 13,-170 44,-348 86,-483 14,-43 24,-81 22,-83 -2,-2 -71,-20 -152,-41 -82,-21 -194,-53 -250,-70 -56,-17 -106,-31 -112,-31 -19,0 -168,313 -209,440 -38,115 -73,266 -89,383 l -6,47 h 349 349 z m 1042,-142 v -304 l -117,-7 c -172,-10 -290,-22 -450,-47 -79,-12 -145,-19 -149,-16 -11,12 -54,184 -74,301 -11,67 -23,179 -27,250 l -6,127 h 411 412 z m 1046,207 c -12,-165 -34,-314 -67,-444 -17,-68 -34,-127 -38,-131 -3,-4 -67,1 -141,12 -150,20 -300,35 -462,46 l -108,6 v 304 304 h 411 412 z m 940,35 c -25,-228 -143,-559 -271,-760 l -35,-56 -78,24 c -89,28 -287,85 -383,109 l -67,17 24,72 c 52,150 90,357 101,548 l 6,108 h 355 355 z M 5020,3810 c 0,-229 -3,-340 -10,-340 -17,0 -89,39 -151,81 -74,50 -206,175 -271,256 -78,98 -182,275 -166,284 33,17 369,55 521,58 l 77,1 z m 475,330 c 128,-11 342,-43 352,-54 9,-8 -80,-159 -144,-244 -114,-153 -258,-284 -388,-352 l -60,-32 -6,59 c -9,79 -10,383 -2,521 l 6,112 h 57 c 31,0 114,-5 185,-10 z M 4222,3948 c 108,-216 222,-372 381,-523 54,-52 93,-95 87,-95 -26,0 -219,70 -300,108 -112,53 -276,153 -373,226 -99,74 -284,251 -275,262 10,9 385,113 413,113 16,1 31,-20 67,-91 z m 2033,56 c 106,-29 269,-77 274,-80 9,-7 -73,-94 -159,-171 -225,-199 -537,-367 -780,-418 -33,-7 -33,-7 25,43 180,151 329,349 443,589 l 35,75 36,-7 c 20,-4 77,-18 126,-31 z"
       id="path2"
       clip-path="url(#clipPath38)" />
    <path
       d="m 2370,5210 c -30,-30 -27,-83 6,-109 15,-12 33,-21 40,-21 25,0 62,22 74,45 36,67 -66,139 -120,85 z"
       id="path3"
       clip-path="url(#clipPath37)" />
    <path
       d="m 2655,5205 c -14,-13 -25,-31 -25,-40 0,-30 30,-75 54,-81 24,-6 65,10 78,30 16,23 8,73 -15,94 -30,29 -62,28 -92,-3 z"
       id="path4"
       clip-path="url(#clipPath36)" />
    <path
       d="m 7479,5211 c -28,-23 -32,-83 -6,-108 9,-10 32,-17 53,-17 69,0 101,82 48,123 -33,26 -65,27 -95,2 z"
       id="path5"
       clip-path="url(#clipPath35)" />
    <path
       d="m 2107,5199 c -49,-38 -24,-109 38,-109 50,0 80,60 48,97 -28,32 -56,36 -86,12 z"
       id="path6"
       clip-path="url(#clipPath34)" />
    <path
       d="m 7757,5200 c -34,-27 -35,-63 -2,-95 28,-29 51,-31 83,-9 15,10 22,25 22,48 0,64 -55,94 -103,56 z"
       id="path7"
       clip-path="url(#clipPath33)" />
    <path
       d="m 1870,5190 c -32,-32 -25,-66 18,-89 36,-19 72,9 72,54 0,53 -52,73 -90,35 z"
       id="path8"
       clip-path="url(#clipPath32)" />
    <path
       d="m 7996,5195 c -42,-43 -20,-105 38,-105 57,0 89,66 50,104 -20,20 -68,21 -88,1 z"
       id="path9"
       clip-path="url(#clipPath31)" />
    <path
       d="m 8236,5188 c -9,-12 -16,-30 -16,-40 0,-24 35,-58 60,-58 11,0 29,9 40,20 11,11 20,29 20,40 0,28 -35,60 -64,60 -14,0 -32,-10 -40,-22 z"
       id="path10"
       clip-path="url(#clipPath30)" />
    <path
       id="path11"
       d="m 8034.1406,4581.8213 c -60.3276,2.2969 -110.3852,-54.3228 -153.1347,-172.8223 -73,-196.999 -213.0137,-455.9971 -368.0127,-675.9961 C 7164.9947,3237.0054 6655.999,2835 6097.002,2616.001 5886.003,2533.0015 5619.0039,2464.0039 5470.0049,2454.0039 l -75,-5.0098 -37.002,50.0098 c -52.9995,70.9995 -112.9985,102.999 -202.998,108.999 -63,4 -80.0059,0.9937 -126.0059,-21.0058 -56.9995,-26 -90.9936,-53.9956 -132.9931,-109.9951 l -26.001,-33.9991 -102.0117,14.0039 c -105.9995,15 -232.9937,43.9971 -372.9932,86.9971 -453.9975,137.9995 -932.0015,442.9932 -1230,785.9912 -47,54 -85.0049,100.0039 -85.0049,104.0039 0,3 83.0103,6.0059 185.0098,6.0059 183.999,0 186,-0.01 210,24.9902 32.9995,32 33.9878,94.0088 2.9883,129.0088 -13,14 -235.9962,130.9966 -514.9952,270.9961 l -488.7158,243.3545 -325.1806,145.5762 c 3.8543,-13.2657 6.0929,-21.8782 10.8984,-37.9248 71.9995,-238.999 157.0054,-477.002 295.0049,-825 74.9995,-189.9995 152.0024,-392.0005 172.0019,-450 46,-133.9995 70.9937,-161.001 147.9932,-161.001 97.9995,0 131.0049,53.9951 115.0049,188.9941 -13,109.9995 -23.0064,291.0059 -17.0069,291.0059 3,0 27.0093,-28.0069 54.0088,-62.0069 108.9995,-143.999 332.9952,-355.0019 518.9942,-491.0009 396.998,-288.9985 938.0078,-504.9942 1341.0058,-533.9942 l 81.9873,-6.0058 29.0039,-46.9922 c 31,-50 93.9966,-99.0078 150.9961,-118.0078 52,-18 150.0069,-13.9981 197.0069,7.0019 52.9995,24 114.999,79.9956 138.999,124.9951 18,33 21.9946,35.001 83.9941,41.001 368.9985,33 724.0074,144.0039 1071.0059,333.0029 419.998,228.999 741.0064,492.0084 1045.0049,857.0069 215.999,258.9985 398.9927,565.9912 526.9922,883.9892 75.9995,188.9995 72.9956,258.0015 -14.0039,311.001 -22.5,13.75 -43.7432,21.0606 -63.8526,21.8262 z"
       clip-path="url(#clipPath29)" />
  </g>
</svg>
