<?xml version="1.0" encoding="UTF-8" standalone="no"?>
<svg
   version="1.1"
   aria-label="France Travail"
   role="img"
   focusable="false"
   x="0px"
   y="0px"
   viewBox="0 0 100 60"
   style="enable-background:new 0 0 142.8 114.8"
   xml:space="preserve"
   id="svg46"
   sodipodi:docname="logo-france-travail-bg.svg"
   inkscape:version="1.1.2 (0a00cf5339, 2022-02-04)"
   xmlns:inkscape="http://www.inkscape.org/namespaces/inkscape"
   xmlns:sodipodi="http://sodipodi.sourceforge.net/DTD/sodipodi-0.dtd"
   xmlns="http://www.w3.org/2000/svg"
   xmlns:svg="http://www.w3.org/2000/svg"><defs
   id="defs50" /><sodipodi:namedview
   id="namedview48"
   pagecolor="#ffffff"
   bordercolor="#666666"
   borderopacity="1.0"
   inkscape:pageshadow="2"
   inkscape:pageopacity="0.0"
   inkscape:pagecheckerboard="0"
   showgrid="false"
   inkscape:zoom="13.033333"
   inkscape:cx="49.987212"
   inkscape:cy="29.961637"
   inkscape:window-width="1920"
   inkscape:window-height="1016"
   inkscape:window-x="0"
   inkscape:window-y="0"
   inkscape:window-maximized="1"
   inkscape:current-layer="svg46" /><style
   type="text/css"
   id="style2">.st0{fill:#283276}.st1{fill:#f29fc5}.st2{fill:#008ecf}.st3{fill:#e1000f}.st4{fill:#ffe000}</style>
                <path
   class="st0"
   d="m 74.026241,41.6 c 0,2.5 -2.1,4.6 -4.6,4.6 -2.5,0 -4.6,-2.1 -4.6,-4.6 0,-2.5 2.1,-4.6 4.6,-4.6 2.5,-0.1 4.6,2 4.6,4.6 z"
   id="path4" />
                <path
   class="st1"
   d="m 43.626241,24.3 c 0,2.5 -2.1,4.6 -4.6,4.6 -2.5,0 -4.6,-2.1 -4.6,-4.6 0,-2.5 2.1,-4.6 4.6,-4.6 2.5,0 4.6,2.1 4.6,4.6 z"
   id="path6" />
                <path
   class="st2"
   d="m 65.326241,36.5 c 0,2.5 -2.1,4.6 -4.6,4.6 -2.5,0 -4.6,-2.1 -4.6,-4.6 0,-2.5 2.1,-4.6 4.6,-4.6 2.5,0 4.6,2.1 4.6,4.6 z"
   id="path8" />
                <path
   class="st1"
   d="m 54.126241,42.1 c 0,2.5 -2.1,4.6 -4.6,4.6 -2.5,0 -4.6,-2.1 -4.6,-4.6 0,-2.5 2.1,-4.6 4.6,-4.6 2.5,0 4.6,2 4.6,4.6 z"
   id="path10" />
                <path
   class="st0"
   d="m 54.126241,53 c 0,2.5 -2.1,4.6 -4.6,4.6 -2.5,0 -4.6,-2.1 -4.6,-4.6 0,-2.5 2.1,-4.6 4.6,-4.6 2.5,0 4.6,2 4.6,4.6 z"
   id="path12" />
                <path
   class="st0"
   d="m 74.026241,18.6 c 0,2.5 -2.1,4.6 -4.6,4.6 -2.5,0 -4.6,-2.1 -4.6,-4.6 0,-2.5 2.1,-4.6 4.6,-4.6 2.5,0 4.6,2 4.6,4.6 z"
   id="path14" />
                <path
   class="st0"
   d="m 65.326241,24.3 c 0,2.5 -2.1,4.6 -4.6,4.6 -2.5,0 -4.6,-2.1 -4.6,-4.6 0,-2.5 2.1,-4.6 4.6,-4.6 2.5,0 4.6,2.1 4.6,4.6 z"
   id="path16" />
                <path
   class="st0"
   d="m 42.926241,36.9 c 0,2.5 -2.1,4.6 -4.6,4.6 -2.5,0 -4.6,-2.1 -4.6,-4.6 0,-2.5 2.1,-4.6 4.6,-4.6 2.5,0 4.6,2.1 4.6,4.6 z"
   id="path18" />
                <path
   class="st0"
   d="m 34.126241,17.6 c 0.6,2.5 -1,4.9 -3.5,5.5 -2.5,0.6 -4.9,-1 -5.5,-3.5 -0.6,-2.5 1,-4.9 3.5,-5.5 2.5,-0.6 4.9,1 5.5,3.5"
   id="path20" />
                <path
   class="st3"
   d="m 33.626241,27.6 c -0.2,1.4 -1.5,2.4 -3,2.2 -1.4,-0.2 -2.4,-1.5 -2.2,-3 0.2,-1.4 1.5,-2.4 3,-2.2 1.4,0.2 2.4,1.5 2.2,3"
   id="path22" />
                <path
   class="st3"
   d="m 60.126241,46.6 c -0.2,1.6 -1.8,2.8 -3.4,2.6 -1.7,-0.2 -2.8,-1.8 -2.6,-3.4 0.2,-1.6 1.8,-2.8 3.4,-2.6 1.7,0.2 2.8,1.7 2.6,3.4"
   id="path24" />
                <path
   class="st3"
   d="m 69.126241,27.4 c -0.1,1 -1.1,1.7 -2.1,1.5 -1,-0.1 -1.7,-1.1 -1.5,-2.1 0.1,-1 1.1,-1.7 2.1,-1.5 0.9,0.2 1.6,1.2 1.5,2.1 z"
   id="path26" />
                <path
   class="st3"
   d="m 51.126241,18.9 c -0.2,1.4 -1.5,2.4 -3,2.2 -1.4,-0.2 -2.4,-1.5 -2.2,-3 0.2,-1.4 1.5,-2.4 3,-2.2 1.4,0.2 2.4,1.5 2.2,3"
   id="path28" />
                <path
   class="st1"
   d="m 58.626241,15.5 c -0.2,1.4 -1.5,2.4 -3,2.2 -1.4,-0.2 -2.4,-1.5 -2.2,-3 0.2,-1.4 1.5,-2.4 3,-2.2 1.4,0.2 2.4,1.5 2.2,3"
   id="path30" />
                <path
   class="st4"
   d="m 41.626241,44.3 c -0.2,1.4 -1.5,2.4 -3,2.2 -1.4,-0.2 -2.4,-1.5 -2.2,-3 0.2,-1.4 1.5,-2.4 3,-2.2 1.4,0.3 2.4,1.6 2.2,3"
   id="path32" />
                <path
   class="st4"
   d="m 67.426241,32.5 c -0.2,1.4 -1.5,2.4 -3,2.2 -1.4,-0.2 -2.4,-1.5 -2.2,-3 0.2,-1.4 1.5,-2.4 3,-2.2 1.4,0.3 2.4,1.6 2.2,3"
   id="path34" />
                <path
   class="st0"
   d="m 64.426241,44.7 c 0.8,1.2 0.4,2.8 -0.8,3.6 -1.2,0.8 -2.8,0.4 -3.6,-0.8 -0.8,-1.2 -0.4,-2.8 0.8,-3.6 1.2,-0.8 2.8,-0.4 3.6,0.8 z"
   id="path36" />
                <path
   class="st4"
   d="m 44.326241,13.9 c -0.2,1.4 -1.5,2.4 -3,2.2 -1.4,-0.2 -2.4,-1.5 -2.2,-3 0.2,-1.4 1.5,-2.4 3,-2.2 1.4,0.2 2.4,1.6 2.2,3"
   id="path38" />
                <path
   class="st2"
   d="m 54.326241,7.2999999 c 0,2.7000001 -2.2,4.8000001 -4.8,4.8000001 -2.7,0 -4.8,-2.2 -4.8,-4.8000001 0,-2.5999999 2.1,-4.7999999 4.8,-4.7999999 2.7,0 4.8,2.2 4.8,4.7999999 z"
   id="path40" />
                <path
   class="st2"
   d="m 34.226241,41.5 c 0,2.5 -2.1,4.6 -4.6,4.6 -2.5,0 -4.6,-2.1 -4.6,-4.6 0,-2.5 2.1,-4.6 4.6,-4.6 2.5,0 4.6,2.1 4.6,4.6 z"
   id="path42" />
                <path
   class="st2"
   d="m 56.926241,29.1 c 0,4.4 -3.6,8.1 -8.1,8.1 -4.4,0 -8.1,-3.6 -8.1,-8.1 0,-4.4 3.6,-8.1 8.1,-8.1 4.5,0 8.1,3.7 8.1,8.1 z"
   id="path44" /></svg>
